<svg width="46" height="46" viewBox="0 0 46 46" fill="none" xmlns="http://www.w3.org/2000/svg">
<path fill-rule="evenodd" clip-rule="evenodd" d="M9.0001 0.599976C10.5465 0.599976 11.8001 1.85358 11.8001 3.39998V6.19998H14.6001C16.1465 6.19998 17.4001 7.45358 17.4001 8.99998C17.4001 10.5464 16.1465 11.8 14.6001 11.8H11.8001V14.6C11.8001 16.1464 10.5465 17.4 9.0001 17.4C7.4537 17.4 6.2001 16.1464 6.2001 14.6V11.8H3.4001C1.8537 11.8 0.600098 10.5464 0.600098 8.99998C0.600098 7.45358 1.8537 6.19998 3.4001 6.19998H6.2001V3.39998C6.2001 1.85358 7.4537 0.599976 9.0001 0.599976ZM9.0001 28.6C10.5465 28.6 11.8001 29.8536 11.8001 31.4V34.2H14.6001C16.1465 34.2 17.4001 35.4536 17.4001 37C17.4001 38.5464 16.1465 39.8 14.6001 39.8H11.8001V42.6C11.8001 44.1464 10.5465 45.4 9.0001 45.4C7.4537 45.4 6.2001 44.1464 6.2001 42.6V39.8H3.4001C1.8537 39.8 0.600098 38.5464 0.600098 37C0.600098 35.4536 1.8537 34.2 3.4001 34.2H6.2001V31.4C6.2001 29.8536 7.4537 28.6 9.0001 28.6Z" fill="#FF7500"/>
<path fill-rule="evenodd" clip-rule="evenodd" d="M28.6 0.599976C29.8704 0.599976 30.9816 1.45533 31.3067 2.68348L34.6085 15.157L43.9992 20.5747C44.8659 21.0747 45.4 21.9993 45.4 23C45.4 24.0006 44.8659 24.9252 43.9992 25.4253L34.6085 30.843L31.3067 43.3165C30.9816 44.5446 29.8704 45.4 28.6 45.4C27.3295 45.4 26.2183 44.5446 25.8932 43.3165L22.5914 30.843L13.2009 25.4253C12.3341 24.9252 11.8001 24.0006 11.8001 23C11.8001 21.9993 12.3341 21.0747 13.2009 20.5747L22.5914 15.157L25.8932 2.68348C26.2183 1.45533 27.3295 0.599976 28.6 0.599976Z" fill="#FF7500"/>
</svg>
